<svg width="450" height="648" version="1.1" xmlns:xlink="http://www.w3.org/1999/xlink" xmlns="http://www.w3.org/2000/svg">
  <title>鉄道路線図 JR山手線</title>
  <desc>Author: Lincun</desc>
  <g stroke-linejoin="round" stroke-linecap="round" fill="none">
    <path d="
    	M315 292l-6 19-12 13-7 15
    	v5l1 15
    	v7l-6 28-3 7-2 4-5 4-22 15-6 6-12 30 1 23
    	M234 476
    	l1 13-3 17-2 5-4 5-3 2-5 1-5-1-4-4-19-31-4-3-10-6-3-4-3-7-4-22-3-6-15-35-17-24-2-6 3-35 5-20
    	v-10l-5-16-6-22
    	v-11l-2-10 4-30 16-61 17-40 6-4 3-1
    	h5l39 12
    	h7
    	l37-18 23-14 5-1 5 2 11 12
    	M302 103l9 9 11 19 5 5 5 4 16 18
    	M348 158
    	l2 4
    	v6l-8 12-5 10
    	v10
    	l-2 18-2 7-2 19-3 9-13 39" stroke="rgb(127, 195, 66)" stroke-width="5">
    </path>
  </g>
	  
  <g stroke="rgb(127, 195, 66)" stroke-width="1" fill="white">
    <circle cx="314" cy="296" r="5"></circle>
    <circle cx="304" cy="317" r="5"></circle>
    <circle cx="290" cy="347" r="5"></circle>
    <circle cx="287" cy="385" r="5"></circle>
    <circle cx="260" cy="419" r="5"></circle>
    <circle cx="234" cy="480" r="5"></circle>
    <circle cx="205" cy="508" r="5"></circle>
    <circle cx="192" cy="486" r="5"></circle>
    <circle cx="171" cy="463" r="5"></circle>
    <circle cx="154" cy="415" r="5"></circle>
    <circle cx="131" cy="375" r="5"></circle>
    <circle cx="133" cy="330" r="5"></circle>
    <circle cx="132" cy="286" r="5"></circle>
    <circle cx="126" cy="263" r="5"></circle>
    <circle cx="126" cy="227" r="5"></circle>
    <circle cx="137" cy="185" r="5"></circle>
    <circle cx="143" cy="159" r="5"></circle>
    <circle cx="157" cy="125" r="5"></circle>
    <circle cx="205" cy="120" r="5"></circle>
    <circle cx="240" cy="113" r="5"></circle>
    <circle cx="261" cy="102" r="5"></circle>
    <circle cx="299" cy="100" r="5"></circle>
    <circle cx="314" cy="119" r="5"></circle>
    <circle cx="326" cy="135" r="5"></circle>
    <circle cx="346" cy="155" r="5"></circle>
    <circle cx="340" cy="184" r="5"></circle>
    <circle cx="337" cy="205" r="5"></circle>
    <circle cx="332" cy="235" r="5"></circle>
    <circle cx="326" cy="259" r="5"></circle>
  </g>
</svg>