<svg width="232" height="420" viewBox="0 0 232 420" fill="none" xmlns="http://www.w3.org/2000/svg">
<path d="M194 207C196.761 207 199 204.761 199 202C199 199.239 196.761 197 194 197C191.239 197 189 199.239 189 202C189 204.761 191.239 207 194 207Z" fill="white" stroke="#7FC342"/>
<path d="M184 228C186.761 228 189 225.761 189 223C189 220.239 186.761 218 184 218C181.239 218 179 220.239 179 223C179 225.761 181.239 228 184 228Z" fill="white" stroke="#7FC342"/>
<path d="M170 258C172.761 258 175 255.761 175 253C175 250.239 172.761 248 170 248C167.239 248 165 250.239 165 253C165 255.761 167.239 258 170 258Z" fill="white" stroke="#7FC342"/>
<path d="M167 296C169.761 296 172 293.761 172 291C172 288.239 169.761 286 167 286C164.239 286 162 288.239 162 291C162 293.761 164.239 296 167 296Z" fill="white" stroke="#7FC342"/>
<path d="M140 330C142.761 330 145 327.761 145 325C145 322.239 142.761 320 140 320C137.239 320 135 322.239 135 325C135 327.761 137.239 330 140 330Z" fill="white" stroke="#7FC342"/>
<path d="M114 391C116.761 391 119 388.761 119 386C119 383.239 116.761 381 114 381C111.239 381 109 383.239 109 386C109 388.761 111.239 391 114 391Z" fill="white" stroke="#7FC342"/>
<path d="M85 419C87.7614 419 90 416.761 90 414C90 411.239 87.7614 409 85 409C82.2386 409 80 411.239 80 414C80 416.761 82.2386 419 85 419Z" fill="white" stroke="#7FC342"/>
<path d="M72 397C74.7614 397 77 394.761 77 392C77 389.239 74.7614 387 72 387C69.2386 387 67 389.239 67 392C67 394.761 69.2386 397 72 397Z" fill="white" stroke="#7FC342"/>
<path d="M51 374C53.7614 374 56 371.761 56 369C56 366.239 53.7614 364 51 364C48.2386 364 46 366.239 46 369C46 371.761 48.2386 374 51 374Z" fill="white" stroke="#7FC342"/>
<path d="M34 326C36.7614 326 39 323.761 39 321C39 318.239 36.7614 316 34 316C31.2386 316 29 318.239 29 321C29 323.761 31.2386 326 34 326Z" fill="white" stroke="#7FC342"/>
<path d="M11 286C13.7614 286 16 283.761 16 281C16 278.239 13.7614 276 11 276C8.23858 276 6 278.239 6 281C6 283.761 8.23858 286 11 286Z" fill="white" stroke="#7FC342"/>
<path d="M13 241C15.7614 241 18 238.761 18 236C18 233.239 15.7614 231 13 231C10.2386 231 8 233.239 8 236C8 238.761 10.2386 241 13 241Z" fill="white" stroke="#7FC342"/>
<path d="M12 197C14.7614 197 17 194.761 17 192C17 189.239 14.7614 187 12 187C9.23858 187 7 189.239 7 192C7 194.761 9.23858 197 12 197Z" fill="white" stroke="#7FC342"/>
<path d="M6 174C8.76142 174 11 171.761 11 169C11 166.239 8.76142 164 6 164C3.23858 164 1 166.239 1 169C1 171.761 3.23858 174 6 174Z" fill="white" stroke="#7FC342"/>
<path d="M6 138C8.76142 138 11 135.761 11 133C11 130.239 8.76142 128 6 128C3.23858 128 1 130.239 1 133C1 135.761 3.23858 138 6 138Z" fill="white" stroke="#7FC342"/>
<path d="M17 96C19.7614 96 22 93.7614 22 91C22 88.2386 19.7614 86 17 86C14.2386 86 12 88.2386 12 91C12 93.7614 14.2386 96 17 96Z" fill="white" stroke="#7FC342"/>
<path d="M23 70C25.7614 70 28 67.7614 28 65C28 62.2386 25.7614 60 23 60C20.2386 60 18 62.2386 18 65C18 67.7614 20.2386 70 23 70Z" fill="white" stroke="#7FC342"/>
<path d="M37 36C39.7614 36 42 33.7614 42 31C42 28.2386 39.7614 26 37 26C34.2386 26 32 28.2386 32 31C32 33.7614 34.2386 36 37 36Z" fill="white" stroke="#7FC342"/>
<path d="M85 31C87.7614 31 90 28.7614 90 26C90 23.2386 87.7614 21 85 21C82.2386 21 80 23.2386 80 26C80 28.7614 82.2386 31 85 31Z" fill="white" stroke="#7FC342"/>
<path d="M120 24C122.761 24 125 21.7614 125 19C125 16.2386 122.761 14 120 14C117.239 14 115 16.2386 115 19C115 21.7614 117.239 24 120 24Z" fill="white" stroke="#7FC342"/>
<path d="M141 13C143.761 13 146 10.7614 146 8C146 5.23858 143.761 3 141 3C138.239 3 136 5.23858 136 8C136 10.7614 138.239 13 141 13Z" fill="white" stroke="#7FC342"/>
<path d="M179 11C181.761 11 184 8.76142 184 6C184 3.23858 181.761 1 179 1C176.239 1 174 3.23858 174 6C174 8.76142 176.239 11 179 11Z" fill="white" stroke="#7FC342"/>
<path d="M194 30C196.761 30 199 27.7614 199 25C199 22.2386 196.761 20 194 20C191.239 20 189 22.2386 189 25C189 27.7614 191.239 30 194 30Z" fill="white" stroke="#7FC342"/>
<path d="M206 46C208.761 46 211 43.7614 211 41C211 38.2386 208.761 36 206 36C203.239 36 201 38.2386 201 41C201 43.7614 203.239 46 206 46Z" fill="white" stroke="#7FC342"/>
<path d="M226 66C228.761 66 231 63.7614 231 61C231 58.2386 228.761 56 226 56C223.239 56 221 58.2386 221 61C221 63.7614 223.239 66 226 66Z" fill="white" stroke="#7FC342"/>
<path d="M220 95C222.761 95 225 92.7614 225 90C225 87.2386 222.761 85 220 85C217.239 85 215 87.2386 215 90C215 92.7614 217.239 95 220 95Z" fill="white" stroke="#7FC342"/>
<path d="M217 116C219.761 116 222 113.761 222 111C222 108.239 219.761 106 217 106C214.239 106 212 108.239 212 111C212 113.761 214.239 116 217 116Z" fill="white" stroke="#7FC342"/>
<path d="M212 146C214.761 146 217 143.761 217 141C217 138.239 214.761 136 212 136C209.239 136 207 138.239 207 141C207 143.761 209.239 146 212 146Z" fill="white" stroke="#7FC342"/>
<path d="M206 170C208.761 170 211 167.761 211 165C211 162.239 208.761 160 206 160C203.239 160 201 162.239 201 165C201 167.761 203.239 170 206 170Z" fill="white" stroke="#7FC342"/>
</svg>
