<svg width="74" height="65" viewBox="0 0 74 65" fill="none" xmlns="http://www.w3.org/2000/svg">
	<g filter="url(#filter0_d_13_17)">
		<path d="M16 10H37.5H58C62 10 64 14 64 16C64 22 62.5 44.5 62.5 49C62.5 53.5 58 55 56 55H17C14 55 12 52.5 11.5 49C11 45.5 10 19.5 10 16C10 12.5 14.5 10 16 10Z" fill="#7FC342"/>
		<path d="M19.1111 13H37.4259H54.8889C60 13 60 15.5 60 18.2C60 23.4 58.7222 42.9 58.7222 46.8C58.7222 52 54.8889 52 53.1852 52H19.963C17.4074 52 15.2778 52 15.2778 46.8C15.2778 43.7369 14 21.2333 14 18.2C14 15.1667 15.2778 13 19.1111 13Z" fill="url(#paint0_linear_13_17)"/>
		<path d="M21 48.5H53" stroke="black" stroke-linecap="round"/>
		<rect x="21" y="16" width="3" height="3" fill="#D9D9D9"/>
		<rect x="50" y="16" width="3" height="3" fill="#D9D9D9"/>
		<rect x="27" y="15" width="20" height="5" fill="#312F2F"/>
		<path d="M16 22H58L57 39H17L16 22Z" fill="#2E3A50"/>
	</g>
	<defs>
		<filter id="filter0_d_13_17" x="0" y="0" width="74" height="65" filterUnits="userSpaceOnUse" color-interpolation-filters="sRGB">
			<feFlood flood-opacity="0" result="BackgroundImageFix"/>
			<feColorMatrix in="SourceAlpha" type="matrix" values="0 0 0 0 0 0 0 0 0 0 0 0 0 0 0 0 0 0 127 0" result="hardAlpha"/>
			<feOffset/>
			<feGaussianBlur stdDeviation="5"/>
			<feComposite in2="hardAlpha" operator="out"/>
			<feColorMatrix type="matrix" values="0 0 0 0 1 0 0 0 0 1 0 0 0 0 1 0 0 0 1 0"/>
			<feBlend mode="normal" in2="BackgroundImageFix" result="effect1_dropShadow_13_17"/>
			<feBlend mode="normal" in="SourceGraphic" in2="effect1_dropShadow_13_17" result="shape"/>
		</filter>
		<linearGradient id="paint0_linear_13_17" x1="37" y1="13" x2="37" y2="52" gradientUnits="userSpaceOnUse">
			<stop offset="0.6875"/>
			<stop offset="1" stop-color="#7FC342"/>
		</linearGradient>
	</defs>
</svg>
