<svg width="54" height="50" viewBox="0 0 54 50" fill="none" xmlns="http://www.w3.org/2000/svg">
	<path fill-rule="evenodd" clip-rule="evenodd" d="M27.5 0H6C4.5 0 0 2.5 0 6C0 9.5 1 35.5 1.5 39C2 42.5 4 45 7 45H9.02885L6 50H48L44.9712 45H46C48 45 52.5 43.5 52.5 39C52.5 36.9116 52.8231 30.9464 53.1693 24.5528L53.1694 24.5523V24.5522C53.5692 17.1693 54 9.21538 54 6C54 4 52 0 48 0H27.5ZM43.1538 42L44.9712 45H9.02885L10.8462 42H9.96296C7.40741 42 5.27778 42 5.27778 36.8C5.27778 35.2647 4.95678 28.8456 4.63656 22.4422L4.63656 22.4422L4.63655 22.4421L4.63654 22.442C4.31788 16.0697 4 9.71296 4 8.2C4 5.16667 5.27778 3 9.11111 3H27.4259H44.8889C50 3 50 5.5 50 8.2C50 10.9867 49.633 17.8801 49.2924 24.2786C48.9974 29.8199 48.7222 34.99 48.7222 36.8C48.7222 42 44.8889 42 43.1852 42H43.1538ZM10.5 38.5C10.5 38.2239 10.7239 38 11 38H43C43.2761 38 43.5 38.2239 43.5 38.5C43.5 38.7761 43.2761 39 43 39H11C10.7239 39 10.5 38.7761 10.5 38.5ZM14 6H11V9H14V6ZM40 6H43V9H40V6ZM37 5H17V10H37V5ZM6 12H48L47 29H7L6 12Z" fill="#7FC342"/>
</svg>
