<svg width="54" height="50" viewBox="0 0 54 50" fill="none" xmlns="http://www.w3.org/2000/svg">
<mask id="path-1-inside-1_18_112" fill="white">
<path fill-rule="evenodd" clip-rule="evenodd" d="M6 0H27.5H48C52 0 54 4 54 6C54 9.21538 53.5692 17.1693 53.1694 24.5522V24.5523L53.1693 24.5528C52.8231 30.9464 52.5 36.9116 52.5 39C52.5 43.5 48 45 46 45H44.9712L48 50H6L9.02885 45H7C4 45 2 42.5 1.5 39C1 35.5 0 9.5 0 6C0 2.5 4.5 0 6 0ZM8.52 3H27.44H45.48C49 3 50.76 6.52 50.76 8.28C50.76 11.1095 50.3809 18.109 50.029 24.606C49.7243 30.2325 49.44 35.4822 49.44 37.32C49.44 41.28 45.48 42.6 43.72 42.6H42.8145L45.4799 47H8.51993L11.1853 42.6H9.4C6.76 42.6 5 40.4 4.56 37.32C4.12 34.24 3.24 11.36 3.24 8.28C3.24 5.2 7.2 3 8.52 3Z"/>
</mask>
<path fill-rule="evenodd" clip-rule="evenodd" d="M6 0H27.5H48C52 0 54 4 54 6C54 9.21538 53.5692 17.1693 53.1694 24.5522V24.5523L53.1693 24.5528C52.8231 30.9464 52.5 36.9116 52.5 39C52.5 43.5 48 45 46 45H44.9712L48 50H6L9.02885 45H7C4 45 2 42.5 1.5 39C1 35.5 0 9.5 0 6C0 2.5 4.5 0 6 0ZM8.52 3H27.44H45.48C49 3 50.76 6.52 50.76 8.28C50.76 11.1095 50.3809 18.109 50.029 24.606C49.7243 30.2325 49.44 35.4822 49.44 37.32C49.44 41.28 45.48 42.6 43.72 42.6H42.8145L45.4799 47H8.51993L11.1853 42.6H9.4C6.76 42.6 5 40.4 4.56 37.32C4.12 34.24 3.24 11.36 3.24 8.28C3.24 5.2 7.2 3 8.52 3Z" fill="#7FC342"/>
<path d="M53.1694 24.5522L52.6701 24.5251L52.6694 24.5386V24.5522H53.1694ZM53.1694 24.5523L53.6688 24.575L53.6694 24.5636V24.5523H53.1694ZM53.1693 24.5528L53.6686 24.5798L53.6688 24.5755L53.1693 24.5528ZM44.9712 45V44.5H44.0837L44.5435 45.2591L44.9712 45ZM48 50V50.5H48.8875L48.4277 49.7409L48 50ZM6 50L5.57235 49.7409L5.11253 50.5H6V50ZM9.02885 45L9.4565 45.2591L9.91631 44.5H9.02885V45ZM50.029 24.606L49.5298 24.579L49.5298 24.579L50.029 24.606ZM42.8145 42.6V42.1H41.9271L42.3869 42.8591L42.8145 42.6ZM45.4799 47V47.5H46.3674L45.9076 46.7409L45.4799 47ZM8.51993 47L8.09228 46.7409L7.63246 47.5H8.51993V47ZM11.1853 42.6L11.613 42.8591L12.0728 42.1H11.1853V42.6ZM4.56 37.32L5.05498 37.2493L5.05498 37.2493L4.56 37.32ZM27.5 -0.5H6V0.5H27.5V-0.5ZM48 -0.5H27.5V0.5H48V-0.5ZM54.5 6C54.5 4.86838 53.9492 3.26107 52.8904 1.93765C51.819 0.598393 50.1859 -0.5 48 -0.5V0.5C49.8141 0.5 51.181 1.40161 52.1096 2.56235C53.0508 3.73893 53.5 5.13162 53.5 6H54.5ZM53.6686 24.5792C54.068 17.2062 54.5 9.23289 54.5 6H53.5C53.5 9.19787 53.0705 17.1324 52.6701 24.5251L53.6686 24.5792ZM53.6694 24.5523V24.5522H52.6694V24.5523H53.6694ZM53.6688 24.5755L53.6688 24.575L52.6699 24.5296L52.6699 24.5301L53.6688 24.5755ZM53 39C53 36.9293 53.3217 30.9844 53.6686 24.5798L52.6701 24.5257C52.3244 30.9083 52 36.8939 52 39H53ZM46 45.5C47.095 45.5 48.8192 45.0977 50.2817 44.1006C51.7649 43.0893 53 41.447 53 39H52C52 41.053 50.9851 42.4107 49.7183 43.2744C48.4308 44.1523 46.905 44.5 46 44.5V45.5ZM44.9712 45.5H46V44.5H44.9712V45.5ZM48.4277 49.7409L45.3988 44.7409L44.5435 45.2591L47.5723 50.2591L48.4277 49.7409ZM6 50.5H48V49.5H6V50.5ZM8.60119 44.7409L5.57235 49.7409L6.42765 50.2591L9.4565 45.2591L8.60119 44.7409ZM7 45.5H9.02885V44.5H7V45.5ZM1.00503 39.0707C1.52234 42.6919 3.64287 45.5 7 45.5V44.5C4.35713 44.5 2.47766 42.3081 1.99497 38.9293L1.00503 39.0707ZM-0.5 6C-0.5 7.76303 -0.249378 15.1503 0.0629483 22.5212C0.374707 29.8787 0.750478 37.2889 1.00503 39.0707L1.99497 38.9293C1.74952 37.2111 1.37529 29.8713 1.06205 22.4788C0.749378 15.0997 0.5 7.73697 0.5 6H-0.5ZM6 -0.5C5.51771 -0.5 4.87709 -0.30875 4.22194 -0.00948538C3.55173 0.296662 2.81257 0.740576 2.1229 1.29888C0.759731 2.4024 -0.5 4.0304 -0.5 6H0.5C0.5 4.4696 1.49027 3.0976 2.7521 2.07612C3.37493 1.57192 4.04202 1.17209 4.63743 0.90011C5.24791 0.62125 5.73229 0.5 6 0.5V-0.5ZM27.44 2.5H8.52V3.5H27.44V2.5ZM45.48 2.5H27.44V3.5H45.48V2.5ZM51.26 8.28C51.26 7.26838 50.7692 5.84107 49.8304 4.66765C48.879 3.47839 47.4259 2.5 45.48 2.5V3.5C47.0541 3.5 48.241 4.28161 49.0496 5.29235C49.8708 6.31892 50.26 7.53162 50.26 8.28H51.26ZM50.5283 24.633C50.8796 18.1459 51.26 11.1271 51.26 8.28H50.26C50.26 11.092 49.8822 18.0722 49.5298 24.579L50.5283 24.633ZM49.94 37.32C49.94 35.4998 50.223 30.2706 50.5283 24.633L49.5298 24.579C49.2256 30.1945 48.94 35.4645 48.94 37.32H49.94ZM43.72 43.1C44.695 43.1 46.2242 42.7427 47.5217 41.8581C48.8399 40.9593 49.94 39.497 49.94 37.32H48.94C48.94 39.103 48.0601 40.2807 46.9583 41.0319C45.8358 41.7973 44.505 42.1 43.72 42.1V43.1ZM42.8145 43.1H43.72V42.1H42.8145V43.1ZM45.9076 46.7409L43.2422 42.3409L42.3869 42.8591L45.0523 47.2591L45.9076 46.7409ZM8.51993 47.5H45.4799V46.5H8.51993V47.5ZM10.7577 42.3409L8.09228 46.7409L8.94759 47.2591L11.613 42.8591L10.7577 42.3409ZM9.4 43.1H11.1853V42.1H9.4V43.1ZM4.06503 37.3907C4.52234 40.5919 6.40287 43.1 9.4 43.1V42.1C7.11714 42.1 5.47766 40.2081 5.05498 37.2493L4.06503 37.3907ZM2.74 8.28C2.74 9.83302 2.96062 16.3353 3.23545 22.8212C3.50971 29.2937 3.84048 35.8189 4.06503 37.3907L5.05498 37.2493C4.83952 35.7411 4.5103 29.2863 4.23455 22.7788C3.95938 16.2847 3.74 9.80697 3.74 8.28H2.74ZM8.52 2.5C8.08272 2.5 7.50959 2.6725 6.93038 2.93708C6.3361 3.20854 5.68132 3.60183 5.0704 4.09638C3.86473 5.0724 2.74 6.52039 2.74 8.28H3.74C3.74 6.9596 4.59527 5.7676 5.6996 4.87362C6.24368 4.43317 6.8264 4.08396 7.34587 3.84667C7.88041 3.6025 8.29729 3.5 8.52 3.5V2.5Z" fill="white" mask="url(#path-1-inside-1_18_112)"/>
</svg>
