<svg width="54" height="45" viewBox="0 0 54 45" fill="none" xmlns="http://www.w3.org/2000/svg">
	<path d="M6 0H27.5H48C52 0 54 4 54 6C54 12 52.5 34.5 52.5 39C52.5 43.5 48 45 46 45H7C4 45 2 42.5 1.5 39C1 35.5 0 9.5 0 6C0 2.5 4.5 0 6 0Z" fill="#7FC342"/>
	<path d="M9.11111 3H27.4259H44.8889C50 3 50 5.5 50 8.2C50 13.4 48.7222 32.9 48.7222 36.8C48.7222 42 44.8889 42 43.1852 42H9.96296C7.40741 42 5.27778 42 5.27778 36.8C5.27778 33.7369 4 11.2333 4 8.2C4 5.16667 5.27778 3 9.11111 3Z" fill="url(#paint0_linear_13_16)"/>
	<path d="M11 38.5H43" stroke="black" stroke-linecap="round"/>
	<rect x="11" y="6" width="3" height="3" fill="#D9D9D9"/>
	<rect x="40" y="6" width="3" height="3" fill="#D9D9D9"/>
	<rect x="17" y="5" width="20" height="5" fill="#312F2F"/>
	<path d="M6 12H48L47 29H7L6 12Z" fill="#2E3A50"/>
	
	<defs>
		<linearGradient id="paint0_linear_13_16" x1="27" y1="3" x2="27" y2="42" gradientUnits="userSpaceOnUse">
			<stop offset="0.6875"/>
			<stop offset="1" stop-color="#7FC342"/>
		</linearGradient>
	</defs>
</svg>
