<svg width="55" height="45" viewBox="0 0 55 45" fill="none" xmlns="http://www.w3.org/2000/svg">
<path d="M6.27259 1H47.8121C50.6649 1 52.9395 3.38314 52.8066 6.2329L51.2678 39.2329C51.1434 41.9009 48.9441 44 46.2733 44H7.73926C5.06417 44 2.86296 41.8945 2.74419 39.222L1.27752 6.222C1.15104 3.37626 3.42404 1 6.27259 1Z" fill="url(#paint0_linear_9_20)" stroke="#7FC342" stroke-width="2"/>
<path d="M13.2295 3.70493H40.7705V9.60657H13.2295V3.70493Z" fill="#312F2F"/>
<path d="M4 11H50L49.5 27H4.5L4 11Z" fill="#2E3A50"/>
<rect x="43.2295" y="5.42624" width="2.45902" height="2.45902" fill="white"/>
<rect x="8.3114" y="5.42624" width="2.45902" height="2.45902" fill="white"/>
<line x1="8" y1="39.5" x2="46" y2="39.5" stroke="black"/>
<defs>
<linearGradient id="paint0_linear_9_20" x1="27.0492" y1="45" x2="27.0492" y2="0" gradientUnits="userSpaceOnUse">
<stop offset="0.0673077" stop-color="#7FC342"/>
<stop offset="0.288462"/>
</linearGradient>
</defs>
</svg>
