<svg width="450" height="648" version="1.1" xmlns:xlink="http://www.w3.org/1999/xlink" xmlns="http://www.w3.org/2000/svg">
  <title>鉄道路線図 JR山手線</title>
  <desc>Author: Lincun</desc>
  <rect x="0" y="0" width="450" height="600" fill="#ccccff" />

  <g stroke="black" stroke-width="0.2" stroke-linejoin="round" stroke-linecap="round" fill="#eeffee">
    <path d="M234 315l4 7 22 13 7-4 22 8 5-11 13-5 16-30 3-9-8-14 34-16 7-6v-6v-5h-8l2-8-21-6v-11l-8-1-1 7h-5l-5 6 5 7-10-1-9-6-44-4-6 4-17 29-18 15-4 12 5 14 6 9h8z" />
    <path d="M309 398l8 2 18 24 44-38-2-40-5-25 2-11 13-26-1-9-5-8-5-14 1-5-18-6v6l-7 6-34 16 8 14-3 9-16 30-13 5-5 11h1l13 9-2 11-8 12 18 13z" />
    <path d="M209 468l6 10-1 8 8 1 4 10 6-1v-4l16-2 3 6 4 1 16-7h3v4h14v-14h5v-19l-19-3 6-16 16 7v-28l-4-1 6-23 11 1 2-14-18-13 8-12 2-11-13-9h-1l-22-8-7 4-22-13-4-7-5-12h-8l-6-9-3 2-3-6h-3l-6 13h-9l-1 3-1-3h-5l-3 2v14l-9 3 2 3-6-1-2 3-2 6 3 3-12 12-5 7 15 15-3 4 6 5 22 4-3 8 5 24-3 8h-3l-6 9 1 1-8 7 3 16 6 1 6-5 10 3 3 3v8l3 1 2-4zM320 486l7 11 31-22-15-23-16 6-1 5 5 1 6-8 7 12zM311 462l5-3-4-1z" />
    <path d="M84 281l7 13 21-18 14-7 6-1 1 4h9l5 12 11 4 9 8-5 13v9l6-1 4 5 9-3v-14l3-2h5l1 3 1-3h9l6-13h3l3 6 3-2-5-14 4-12 18-15 17-29 6-4-8-18-20-4-1 3-9 3-1-6-13-3-5 3-7-4-2-7-13-1-5-4-5 2-7-5-4 4h-13l-3-8 4-10-4-15-14-2-2 4-9 2-32-2-1-5-4 1-4-12-11-8-6 16 1 11h-3l-3 9 6-3 10 5v13l8 6-5 6 7 4 18-5 5 3 2-2 8 1-17 14-3 16 3 11-12 25 2 2-5 9 3 4 5-1z" />
    <path d="M255 220l44 4 9 6 10 1-5-7 5-6h5l1-7v-7l6 1-1-4-2-2-13 1v-6l4-2-4-1 3-6-6-2 1-7-4-6 6 1 3 4h2l-2-4-13-17 5-20-6-11-5-5-3 2-20-12-10 8-7-9-6-1-6 7 3 3-6 7-2 2-5-6-9 9 4 9-5 2 1 3-5-1-6 5-6-7-2 2-8-5-4 1 1 3-7 3 5 17-18 10-2 9 7 2 7 6 2 7 7 4 5-3 13 3 1 6 9-3 1-3 20 4z" />
    <path d="M359 242l18 6 22-45 30-37 6-34-23-4-18 1-2-4h-5l-4-3-5 8-14 3-8 11h-4l-10-1-19-11-11 2-6-11h-3l6 11-5 20 13 17 2 4h-2l-3-4-6-1 4 6-1 7 6 2-3 6 4 1-4 2v6l13-1 2 2 1 4-6-1v7l8 1v11l21 6-2 8h8z" />
    <path d="M454 88l-5 7-1 7-9 16-4 14-6 34-30 37-22 45-1 5 5 14 8-5 1 3 8 1 1 4 7-4 3 5 12-1 1 6 13-1-1-5h7l-1-12 14-2z" />
    <path d="M334 507l2 3-4 4 40 56 15-26-32-50 10-8-7-11-31 22zM367 490l27 40 8-14-23-35zM454 256l-14 2 1 12h-7l1 5-13 1-1-6-12 1-3-5-7 4-1-4-8-1-1-3-8 5 5 8 1 9-13 26-2 11 5 25 2 40-44 38 14 16-1 8 3 7 21 27 14-8 19 28 9-16-5-16-1-18 20-3-2-13 28-4z" />
    <path d="M181 604l4-7h20l2 6 2 1zM302 604v-8l8 1 4 6 19-11-29-45 2-3-5-17-6-3-2-44h-5v14h-14v-4h-3l-16 7-4-1-3-6-16 2v4l-6 1-4-10-8-1 1-8-6-10-3-5-2 4-3-1v-8l-3-3-10-3-6 5-6-1-3-16 8-7-1-1-5 1-12 14 4 30-30 15-7-5-15 4 22 10-23 30-1 20 16 22h8l30 5v8l8 4 4 14zM317 487v14l8 12 9-6-7-10-7-11z" />
    <path d="M70 575v-13l5-5 8 2-1-26 4 4 15 2 12 12 1-20 23-30-22-10 15-4 7 5 30-15-4-30 12-14-6-4-14 4-5-2-36-30-25-38-20-7-14-1 26 41v29l6 16-18 46-1 3-5-1-9-10-18-9-19-3 1 15 4 2 9 29-5 1v5l-4 4v24l14 8 15-6h10l6 9z" />
    <path d="M339 604l-6-12-19 11-4-6-8-1v8zM209 604l-2-1-2-6h-20l-4 7zM179 604l-4-14-8-4v-8l-30-5h-8l-16-22-12-12-15-2-4-4 1 26-8-2-5 5v13l1 20-10 8-1 1zM55 604l-15-23-3 3-5-5-5 2-2-2-5 4-8-6-7 4-4 9-5-3v7l4 4 7 2h-3l-1 4z" />
    <path d="M3 604l1-4h3l-7-2-4-4v10zM60 604l1-1 10-8-1-20-3-17-6-9h-10l-15 6-14-8v-24l4-4v-5l5-1-9-29-4-2-1-15 19 3 18 9 9 10 5 1 1-3 18-46-6-16v-29l-26-41-6-12v-17l-7 2-23 1-1-4-22 7v255l5 3 4-9 7-4 8 6 5-4 2 2 5-2 5 5 3-3 15 23z" />
    <path d="M55 355l14 1 20 7 25 38 36 30 5 2 14-4 6 4 5-1 6-9h3l3-8-5-24 3-8-22-4-6-5 3-4-15-15 5-7 12-12-3-3 2-6 2-3 6 1-2-3-4-5-6 1v-9l5-13-9-8-11-4-5-12h-9l-1-4-6 1-14 7-21 18-7-13 2-9-5 1-3-4 5-9-2-2-57 54-5 3-1 10 1 4 23-1 7-2v17z" />
    <path d="M-4 198h12v14l7 2 1 11 4 8-5 9 1 5 10-2 6 7 2-1-2 8-10 13-11 4 3 8-3 4v5l3 3-2 4 5-2 10 5-1 5-4-1 2 5 57-54 12-25-3-11 3-16 17-14-8-1-2 2-5-3-18 5-7-4 5-6-8-6v-13l-10-5-6 3 3-9h3l-1-11 6-16 2-5-10-8-9-2-9 8h-9l-7 14-8 2v3l-16-2z" />
    <path d="M-4 332l22-7 1-10 5-3-2-5 4 1 1-5-10-5-5 2 2-4-3-3v-5l3-4-3-8 11-4 10-13 2-8-2 1-6-7-10 2-1-5 5-9-4-8-1-11-7-2v-14h-12z" />
    <path d="M62 128l11 8 4 12 4-1 1 5 32 2 9-2 2-4 14 2 4 15-4 10 3 8h13l4-4 7 5 5-2 5 4 13 1-7-6-7-2 2-9 18-10-5-17 7-3-1-3 4-1 8 5 2-2 6 7 6-5 5 1-1-3 5-2-4-9 9-9 5 6 2-2 6-7-3-3 6-7 6 1 7 9 10-8-9-5-9-11-1 3h-6l1-7-7-4-21 5-8-9 3-7-14 2-9 17-13-7-1-11-26-3-18 34-5-1-3-13-5 1-1-9h-13v-3l-5-2-9 8-24 9 1 4-6 8v9l-3 7z" />
    <path d="M266-4l-9 2-4-2zM143-4l1 3 28 20 18 26v8l-2 13-7 8 1 11 13 7 9-17 14-2-3 7 8 9 21-5 7 4-1 7h6l1-3 9 11 9 5 20 12 3-2 1-5h6l4-6 17-9-6-4-2-8-8-1-4-8-10 2-9-7 2-7h-7l-2-6-14-3 3-13 19 2 1-6-22-5-5-9 30-22 3-6v-1z" />
    <path d="M303 123h3l6 11 11-2 19 11 10 1h4l8-11 14-3 5-8 4 3h5l2 4 18-1 23 4 4-14 9-16 1-7-3-5-6-3-26 9-28-8-11-17 1-4 6-5v-8l-6-6-11-5-41 1-35-5-1 6-19-2-3 13 14 3 2 6h7l-2 7 9 7 10-2 4 8 8 1 2 8 6 4-17 9-4 6h-6l-1 5z" />
    <path d="M36-4l9 22 7 9-1 13 4 10-8 25 11-3 14 6-5 11 5 6 24-9 9-8 5 2v3h13l1 9 5-1 3 13 5 1 18-34 26 3 7-8 2-13v-8l-18-26-28-20-1-3z" />
    <path d="M-4-4v142l16 2v-3l8-2 7-14h9l9-8 9 2 10 8 3-7v-9l6-8-1-4-5-6 5-11-14-6-11 3 8-25-4-10 1-13-7-9-9-22z" />
    <path d="M454 56l-9-17v-16l7-3h2zM253-4l4 2 9-2zM295-4v1l-3 6-30 22 5 9 22 5 35 5 41-1 11 5 6 6v8l-6 5-1 4 11 17 28 8 26-9 6 3 3 5 5-7v-92z" />
    <path d="M454 20h-2l-7 3v16l9 17z" />
    <path d="" />
  </g>

  <g stroke-linejoin="round" stroke-linecap="round" fill="none">
    <path d="M316 302l2-6v-10l4-14 11-33 5-36 3-14 11-18 2-6-1-5-1-4-3-4-15-8-6-7-7-8-9-16-20-23-13-9-35-24-12-12-11-18-16-15-6-10-3-6M316 302l-8 12-11 11-6 14-1 3 2 21-3 19-5 18-4 7-4 3-24 15-2 4-4 21-6 21-8 38-4 7-3 2-11 3-3 2-3 3-8 16-8 14-10 29-2 4-5 5-4 2-20 8M329 135l-7-7-1-4 2-6 4-4 4-1 3-1 61 10h3l4-3 4-6 3-8 9-35 8-27 13-19 5-5 10-1M332 140l-9-10-4-6-4-8-9-25-4-6-19-14-17-9-6-3-13-1-6-2-2-2-3-2-6-7-10-18-14-13-7-9-4-9M291 91l-12-10-35-22-12-13-10-17-2-2M307 307l8 2 15 8 6 1h15l8 2 17 11 26 26 14 7 6 1 23-1 2 1 4 2 3 3M306 230l10 4 57 6 13 4 8 1h6l52-4M309 296l3-5 2-2 6-14 3-2 20-8 11-7 11-11 7-3 7-2 13 1 8 2M452 241h2M328 253v-7l-1-3-5-5-6-4M306 230l-6-4-3-1h-9l-7-2-20-1h-6l-4 4-18 28-18 15-5 16-7 8-12 6-2 1-7-1-29-5-12 1-6-3-3-3M127 267l1-6-3-10v-5l-3-10-6-12-6-8-5-3-5-3-11-2-64 1-12 2h-17M203 507l11 15 2 5v5l-3 6-1 7v2l2 2 5 2 17 3h18l8-2 2-2 2-3 1-10 3-35 2-5 3-3 4-1h8l8-2 35-1 8-2 78-51 38-15M156 129l20-47 10-20 2-11v-52v-3M236 483l-1 6M232 506l-5 22-5 51-2 8-8 17M218 519l-6 3-4 4-8 17-6 10-13 35-8 7-21 9" stroke="gray" stroke-width="1.5" />
    <path d="M315 292l-6 19-12 13-7 15v5l1 15v7l-6 28-3 7-2 4-5 4-22 15-6 6-12 30 1 23M234 476l1 13-3 17-2 5-4 5-3 2-5 1-5-1-4-4-19-31-4-3-10-6-3-4-3-7-4-22-3-6-15-35-17-24-2-6 3-35 5-20v-10l-5-16-6-22v-11l-2-10 4-30 16-61 17-40 6-4 3-1h5l39 12h7l37-18 23-14 5-1 5 2 11 12M302 103l9 9 11 19 5 5 5 4 16 18M348 158l2 4v6l-8 12-5 10v10l-2 18-2 7-2 19-3 9-13 39" stroke="rgb(127, 195, 66)" stroke-width="5" />
  </g>
  
  <g stroke="rgb(127, 195, 66)" stroke-width="1" fill="white">
    <circle cx="314" cy="296" r="5" />
    <circle cx="304" cy="317" r="5" />
    <circle cx="290" cy="347" r="5" />
    <circle cx="287" cy="385" r="5" />
    <circle cx="260" cy="419" r="5" />
    <circle cx="234" cy="480" r="5" />
    <circle cx="205" cy="508" r="5" />
    <circle cx="192" cy="486" r="5" />
    <circle cx="171" cy="463" r="5" />
    <circle cx="154" cy="415" r="5" />
    <circle cx="131" cy="375" r="5" />
    <circle cx="133" cy="330" r="5" />
    <circle cx="132" cy="286" r="5" />
    <circle cx="126" cy="263" r="5" />
    <circle cx="126" cy="227" r="5" />
    <circle cx="137" cy="185" r="5" />
    <circle cx="143" cy="159" r="5" />
    <circle cx="157" cy="125" r="5" />
    <circle cx="205" cy="120" r="5" />
    <circle cx="240" cy="113" r="5" />
    <circle cx="261" cy="102" r="5" />
    <circle cx="299" cy="100" r="5" />
    <circle cx="314" cy="119" r="5" />
    <circle cx="326" cy="135" r="5" />
    <circle cx="346" cy="155" r="5" />
    <circle cx="340" cy="184" r="5" />
    <circle cx="337" cy="205" r="5" />
    <circle cx="332" cy="235" r="5" />
    <circle cx="326" cy="259" r="5" />
  </g>

  <g>
    <rect x="0" y="600" width="450" height="48" fill="white" />
    <rect x="286" y="632" width="156" height="8" fill="black" />
    <text x="364" y="626" font-family="sans-serif" font-size="32" fill="black" text-anchor="middle">5km</text>
  </g>
</svg>