<svg width="244" height="448" viewBox="0 0 244 448" fill="none" xmlns="http://www.w3.org/2000/svg">
	<path d="M188.275 236.434C193.775 234.434 196.275 221.434 197.775 215.434C200.942 205.101 208.175 183.834 209.775 179.434C211.775 173.934 215.775 160.434 216.275 154.934C216.775 149.434 221.275 128.242 221.275 124.434C221.275 120.934 218.275 113.434 224.775 103.934C232.239 93.0252 236.775 80.4343 230.275 74.4343C227.115 71.5169 214.775 57.4343 209.275 54.9343C205.993 53.4423 202.275 41.9343 199.775 37.9343C197.275 33.9343 191.775 29.4343 183.775 19.4343C166.173 -2.56906 147.775 20.5593 145.275 22.4343C141.275 25.4343 126.775 30.9343 124.275 32.9343C122.529 34.3311 106.775 44.9343 89.2752 39.4343C65.2685 31.8893 48.7752 20.9343 40.7752 44.9343C39.2752 49.4343 28.2752 74.9343 27.2752 78.4343C26.2752 81.9343 23.0531 100.582 21.2752 104.434C18.2752 110.934 12.7752 138.434 10.7752 146.934C9.03095 154.348 10.7752 180.373 10.7752 182.434C10.7752 185.434 8.73329 194.074 15.7752 205.934C25.2752 221.934 18.462 246.53 17.7752 248.934C16.7752 252.434 9.02489 287.638 14.7752 294.434C20.2752 300.934 34.2752 322.434 38.7752 334.434C43.5671 347.213 51.7752 369.434 54.7752 382.934C57.7752 396.434 73.1129 401.191 76.2752 405.934C79.2752 410.434 78.0987 412.934 89.2752 427.934C108.275 453.434 121.775 424.434 118.775 399.434C116.297 378.786 130.275 345.434 144.275 338.934C169.708 327.126 168.275 313.934 171.775 304.434C175.275 294.934 176.275 277.934 174.275 266.934C172.275 255.934 184.887 237.666 188.275 236.434Z" stroke="#7FC342" stroke-width="20"/>
</svg>
