<svg class="yamanote-stations" width="232" height="420" viewBox="0 0 232 420" fill="none" xmlns="http://www.w3.org/2000/svg">
	<circle cx="194" cy="207" r="5" fill="white"></circle>
	<circle cx="184" cy="228" r="5" fill="white"></circle>
	<circle cx="170" cy="258" r="5" fill="white"></circle>
	<circle cx="167" cy="296" r="5" fill="white"></circle>
	<circle cx="140" cy="330" r="5" fill="white"></circle>
	<circle cx="114" cy="391" r="5" fill="white"></circle>
	<circle cx="85" cy="419" r="5" fill="white"></circle>
	<circle cx="72" cy="397" r="5" fill="white"></circle>
	<circle cx="51" cy="374" r="5" fill="white"></circle>
	<circle cx="34" cy="326" r="5" fill="white"></circle>
	<circle cx="11" cy="286" r="5" fill="white"></circle>
	<circle cx="13" cy="241" r="5" fill="white"></circle>
	<circle cx="12" cy="197" r="5" fill="white"></circle>
	<circle cx="6" cy="174" r="5" fill="white"></circle>
	<circle cx="6" cy="138" r="5" fill="white"></circle>
	<circle cx="17" cy="96" r="5" fill="white"></circle>
	<circle cx="23" cy="70" r="5" fill="white"></circle>
	<circle cx="37" cy="36" r="5" fill="white"></circle>
	<circle cx="85" cy="31"　r="5" fill="white"></circle>
	<circle cx="120" cy="24" r="5" fill="white"></circle>
	<circle cx="141" cy="13" r="5" fill="white"></circle>
	<circle cx="179" cy="11" r="5" fill="white"></circle>
	<circle cx="194" cy="30" r="5" fill="white"></circle>
	<circle cx="206" cy="46" r="5" fill="white"></circle>
	<circle cx="226" cy="66" r="5" fill="white"></circle>
	<circle cx="220" cy="95" r="5" fill="white"></circle>
	<circle cx="217" cy="116" r="5" fill="white"></circle>
	<circle cx="212" cy="146" r="5" fill="white"></circle>
	<circle cx="206" cy="170" r="5" fill="white"></circle>
</svg>