<svg width="331" height="494" viewBox="0 0 331 494" fill="none" xmlns="http://www.w3.org/2000/svg">
<path d="M243 244C245.761 244 248 241.761 248 239C248 236.239 245.761 234 243 234C240.239 234 238 236.239 238 239C238 241.761 240.239 244 243 244Z" fill="white" stroke="#7FC342"/>
<path d="M233 265C235.761 265 238 262.761 238 260C238 257.239 235.761 255 233 255C230.239 255 228 257.239 228 260C228 262.761 230.239 265 233 265Z" fill="white" stroke="#7FC342"/>
<path d="M219 295C221.761 295 224 292.761 224 290C224 287.239 221.761 285 219 285C216.239 285 214 287.239 214 290C214 292.761 216.239 295 219 295Z" fill="white" stroke="#7FC342"/>
<path d="M216 333C218.761 333 221 330.761 221 328C221 325.239 218.761 323 216 323C213.239 323 211 325.239 211 328C211 330.761 213.239 333 216 333Z" fill="white" stroke="#7FC342"/>
<path d="M189 367C191.761 367 194 364.761 194 362C194 359.239 191.761 357 189 357C186.239 357 184 359.239 184 362C184 364.761 186.239 367 189 367Z" fill="white" stroke="#7FC342"/>
<path d="M163 428C165.761 428 168 425.761 168 423C168 420.239 165.761 418 163 418C160.239 418 158 420.239 158 423C158 425.761 160.239 428 163 428Z" fill="white" stroke="#7FC342"/>
<path d="M134 456C136.761 456 139 453.761 139 451C139 448.239 136.761 446 134 446C131.239 446 129 448.239 129 451C129 453.761 131.239 456 134 456Z" fill="white" stroke="#7FC342"/>
<path d="M121 434C123.761 434 126 431.761 126 429C126 426.239 123.761 424 121 424C118.239 424 116 426.239 116 429C116 431.761 118.239 434 121 434Z" fill="white" stroke="#7FC342"/>
<path d="M100 411C102.761 411 105 408.761 105 406C105 403.239 102.761 401 100 401C97.2386 401 95 403.239 95 406C95 408.761 97.2386 411 100 411Z" fill="white" stroke="#7FC342"/>
<path d="M83 363C85.7614 363 88 360.761 88 358C88 355.239 85.7614 353 83 353C80.2386 353 78 355.239 78 358C78 360.761 80.2386 363 83 363Z" fill="white" stroke="#7FC342"/>
<path d="M60 323C62.7614 323 65 320.761 65 318C65 315.239 62.7614 313 60 313C57.2386 313 55 315.239 55 318C55 320.761 57.2386 323 60 323Z" fill="white" stroke="#7FC342"/>
<path d="M62 278C64.7614 278 67 275.761 67 273C67 270.239 64.7614 268 62 268C59.2386 268 57 270.239 57 273C57 275.761 59.2386 278 62 278Z" fill="white" stroke="#7FC342"/>
<path d="M61 234C63.7614 234 66 231.761 66 229C66 226.239 63.7614 224 61 224C58.2386 224 56 226.239 56 229C56 231.761 58.2386 234 61 234Z" fill="white" stroke="#7FC342"/>
<path d="M55 211C57.7614 211 60 208.761 60 206C60 203.239 57.7614 201 55 201C52.2386 201 50 203.239 50 206C50 208.761 52.2386 211 55 211Z" fill="white" stroke="#7FC342"/>
<path d="M55 175C57.7614 175 60 172.761 60 170C60 167.239 57.7614 165 55 165C52.2386 165 50 167.239 50 170C50 172.761 52.2386 175 55 175Z" fill="white" stroke="#7FC342"/>
<path d="M66 133C68.7614 133 71 130.761 71 128C71 125.239 68.7614 123 66 123C63.2386 123 61 125.239 61 128C61 130.761 63.2386 133 66 133Z" fill="white" stroke="#7FC342"/>
<path d="M72 107C74.7614 107 77 104.761 77 102C77 99.2386 74.7614 97 72 97C69.2386 97 67 99.2386 67 102C67 104.761 69.2386 107 72 107Z" fill="white" stroke="#7FC342"/>
<path d="M86 73C88.7614 73 91 70.7614 91 68C91 65.2386 88.7614 63 86 63C83.2386 63 81 65.2386 81 68C81 70.7614 83.2386 73 86 73Z" fill="white" stroke="#7FC342"/>
<path d="M134 68C136.761 68 139 65.7614 139 63C139 60.2386 136.761 58 134 58C131.239 58 129 60.2386 129 63C129 65.7614 131.239 68 134 68Z" fill="white" stroke="#7FC342"/>
<path d="M169 61C171.761 61 174 58.7614 174 56C174 53.2386 171.761 51 169 51C166.239 51 164 53.2386 164 56C164 58.7614 166.239 61 169 61Z" fill="white" stroke="#7FC342"/>
<path d="M190 50C192.761 50 195 47.7614 195 45C195 42.2386 192.761 40 190 40C187.239 40 185 42.2386 185 45C185 47.7614 187.239 50 190 50Z" fill="white" stroke="#7FC342"/>
<path d="M228 48C230.761 48 233 45.7614 233 43C233 40.2386 230.761 38 228 38C225.239 38 223 40.2386 223 43C223 45.7614 225.239 48 228 48Z" fill="white" stroke="#7FC342"/>
<path d="M243 67C245.761 67 248 64.7614 248 62C248 59.2386 245.761 57 243 57C240.239 57 238 59.2386 238 62C238 64.7614 240.239 67 243 67Z" fill="white" stroke="#7FC342"/>
<path d="M255 83C257.761 83 260 80.7614 260 78C260 75.2386 257.761 73 255 73C252.239 73 250 75.2386 250 78C250 80.7614 252.239 83 255 83Z" fill="white" stroke="#7FC342"/>
<path d="M275 103C277.761 103 280 100.761 280 98C280 95.2386 277.761 93 275 93C272.239 93 270 95.2386 270 98C270 100.761 272.239 103 275 103Z" fill="white" stroke="#7FC342"/>
<path d="M269 132C271.761 132 274 129.761 274 127C274 124.239 271.761 122 269 122C266.239 122 264 124.239 264 127C264 129.761 266.239 132 269 132Z" fill="white" stroke="#7FC342"/>
<path d="M266 153C268.761 153 271 150.761 271 148C271 145.239 268.761 143 266 143C263.239 143 261 145.239 261 148C261 150.761 263.239 153 266 153Z" fill="white" stroke="#7FC342"/>
<path d="M261 183C263.761 183 266 180.761 266 178C266 175.239 263.761 173 261 173C258.239 173 256 175.239 256 178C256 180.761 258.239 183 261 183Z" fill="white" stroke="#7FC342"/>
<path d="M255 207C257.761 207 260 204.761 260 202C260 199.239 257.761 197 255 197C252.239 197 250 199.239 250 202C250 204.761 252.239 207 255 207Z" fill="white" stroke="#7FC342"/>
</svg>
