<svg width="331" height="494" viewBox="0 0 331 494" fill="none" xmlns="http://www.w3.org/2000/svg">
	<path d="M232.275 259.434C237.775 257.434 240.275 244.434 241.775 238.434C244.942 228.101 252.175 206.834 253.775 202.434C255.775 196.934 259.775 183.434 260.275 177.934C260.775 172.434 265.275 151.242 265.275 147.434C265.275 143.934 262.275 136.434 268.775 126.934C276.239 116.025 280.775 103.434 274.275 97.4343C271.115 94.5169 258.775 80.4343 253.275 77.9343C249.993 76.4423 246.275 64.9343 243.775 60.9343C241.275 56.9343 235.775 52.4343 227.775 42.4343C210.173 20.4309 191.775 43.5593 189.275 45.4343C185.275 48.4343 170.775 53.9343 168.275 55.9343C166.529 57.3311 150.775 67.9343 133.275 62.4343C109.268 54.8893 92.7752 43.9343 84.7752 67.9343C83.2752 72.4343 72.2752 97.9343 71.2752 101.434C70.2752 104.934 67.0531 123.582 65.2752 127.434C62.2752 133.934 56.7752 161.434 54.7752 169.934C53.031 177.348 54.7752 203.373 54.7752 205.434C54.7752 208.434 52.7333 217.074 59.7752 228.934C69.2752 244.934 62.462 269.53 61.7752 271.934C60.7752 275.434 53.0249 310.638 58.7752 317.434C64.2752 323.934 78.2752 345.434 82.7752 357.434C87.5671 370.213 95.7752 392.434 98.7752 405.934C101.775 419.434 117.113 424.191 120.275 428.934C123.275 433.434 122.099 435.934 133.275 450.934C152.275 476.434 165.775 447.434 162.775 422.434C160.297 401.786 174.275 368.434 188.275 361.934C213.708 350.126 212.275 336.934 215.775 327.434C219.275 317.934 220.275 300.934 218.275 289.934C216.275 278.934 228.887 260.666 232.275 259.434Z" stroke="#7FC342" stroke-width="20"/>
</svg>
